<svg xmlns="http://www.w3.org/2000/svg" xmlns:xlink="http://www.w3.org/1999/xlink" height="200" width="400"><polygon points="0, 200 0, 100 1, 101 2, 100 3, 101 4, 102 5, 103 6, 104 7, 103 8, 104 9, 103 10, 102 11, 103 12, 104 13, 103 14, 102 15, 101 16, 100 17, 99 18, 98 19, 99 20, 100 21, 101 22, 100 23, 101 24, 102 25, 101 26, 100 27, 99 28, 98 29, 97 30, 96 31, 97 32, 98 33, 97 34, 96 35, 97 36, 96 37, 97 38, 96 39, 95 40, 94 41, 95 42, 94 43, 93 44, 94 45, 93 46, 94 47, 95 48, 94 49, 95 50, 94 51, 95 52, 94 53, 93 54, 92 55, 91 56, 90 57, 89 58, 88 59, 87 60, 86 61, 87 62, 88 63, 89 64, 88 65, 87 66, 88 67, 89 68, 88 69, 89 70, 90 71, 91 72, 92 73, 91 74, 90 75, 89 76, 88 77, 89 78, 88 79, 87 80, 86 81, 85 82, 86 83, 87 84, 86 85, 87 86, 88 87, 87 88, 86 89, 87 90, 86 91, 87 92, 88 93, 87 94, 88 95, 89 96, 88 97, 87 98, 88 99, 89 100, 90 101, 91 102, 92 103, 91 104, 92 105, 91 106, 90 107, 91 108, 90 109, 91 110, 92 111, 93 112, 94 113, 95 114, 96 115, 95 116, 96 117, 97 118, 96 119, 95 120, 96 121, 97 122, 96 123, 97 124, 98 125, 99 126, 98 127, 97 128, 98 129, 99 130, 100 131, 101 132, 102 133, 101 134, 100 135, 101 136, 102 137, 101 138, 100 139, 99 140, 100 141, 99 142, 100 143, 101 144, 100 145, 99 146, 98 147, 99 148, 100 149, 101 150, 100 151, 101 152, 102 153, 101 154, 100 155, 101 156, 100 157, 99 158, 98 159, 99 160, 98 161, 99 162, 98 163, 97 164, 98 165, 99 166, 98 167, 99 168, 100 169, 99 170, 98 171, 99 172, 98 173, 97 174, 98 175, 99 176, 100 177, 99 178, 98 179, 99 180, 98 181, 99 182, 98 183, 99 184, 100 185, 99 186, 100 187, 101 188, 102 189, 101 190, 100 191, 99 192, 100 193, 99 194, 98 195, 99 196, 100 197, 99 198, 98 199, 97 200, 98 201, 99 202, 100 203, 101 204, 100 205, 101 206, 102 207, 103 208, 102 209, 101 210, 102 211, 103 212, 102 213, 103 214, 102 215, 101 216, 100 217, 101 218, 102 219, 101 220, 102 221, 101 222, 102 223, 103 224, 104 225, 103 226, 104 227, 103 228, 102 229, 103 230, 104 231, 103 232, 102 233, 101 234, 100 235, 99 236, 100 237, 99 238, 98 239, 97 240, 96 241, 95 242, 94 243, 93 244, 94 245, 93 246, 94 247, 95 248, 94 249, 95 250, 94 251, 95 252, 96 253, 95 254, 96 255, 97 256, 96 257, 97 258, 96 259, 95 260, 94 261, 95 262, 96 263, 97 264, 96 265, 97 266, 98 267, 97 268, 98 269, 99 270, 100 271, 101 272, 100 273, 101 274, 102 275, 101 276, 102 277, 101 278, 100 279, 99 280, 100 281, 101 282, 100 283, 99 284, 100 285, 99 286, 98 287, 99 288, 98 289, 99 290, 98 291, 99 292, 98 293, 99 294, 98 295, 99 296, 100 297, 99 298, 98 299, 97 300, 98 301, 99 302, 98 303, 97 304, 96 305, 95 306, 96 307, 97 308, 98 309, 99 310, 100 311, 99 312, 100 313, 99 314, 100 315, 101 316, 102 317, 103 318, 104 319, 105 320, 106 321, 105 322, 106 323, 107 324, 108 325, 109 326, 110 327, 109 328, 110 329, 111 330, 110 331, 111 332, 110 333, 109 334, 110 335, 111 336, 110 337, 111 338, 110 339, 109 340, 108 341, 109 342, 108 343, 107 344, 106 345, 105 346, 106 347, 107 348, 108 349, 107 350, 106 351, 107 352, 108 353, 109 354, 110 355, 111 356, 110 357, 109 358, 110 359, 111 360, 110 361, 111 362, 110 363, 109 364, 108 365, 107 366, 106 367, 105 368, 106 369, 105 370, 104 371, 105 372, 104 373, 103 374, 102 375, 101 376, 100 377, 101 378, 102 379, 103 380, 102 381, 103 382, 102 383, 101 384, 100 385, 101 386, 102 387, 101 388, 100 389, 99 390, 100 391, 99 392, 98 393, 99 394, 98 395, 99 396, 100 397, 101 398, 100 399, 99 400, 200 " style="fill:rgb(129,21,156);stroke:rgb(29,0,56)"></polygon><polygon points="0, 200 0, 100 1, 101 2, 100 3, 101 4, 100 5, 101 6, 100 7, 99 8, 98 9, 97 10, 98 11, 99 12, 98 13, 97 14, 98 15, 99 16, 98 17, 99 18, 100 19, 99 20, 98 21, 99 22, 98 23, 97 24, 98 25, 97 26, 98 27, 99 28, 98 29, 97 30, 98 31, 99 32, 98 33, 99 34, 100 35, 101 36, 102 37, 103 38, 102 39, 101 40, 100 41, 99 42, 98 43, 97 44, 98 45, 99 46, 100 47, 99 48, 100 49, 99 50, 98 51, 99 52, 100 53, 99 54, 100 55, 99 56, 100 57, 101 58, 102 59, 101 60, 100 61, 101 62, 102 63, 101 64, 102 65, 103 66, 102 67, 101 68, 102 69, 103 70, 104 71, 105 72, 104 73, 105 74, 106 75, 105 76, 104 77, 105 78, 104 79, 103 80, 102 81, 103 82, 104 83, 103 84, 102 85, 101 86, 102 87, 101 88, 100 89, 99 90, 98 91, 99 92, 98 93, 99 94, 98 95, 97 96, 96 97, 95 98, 94 99, 93 100, 94 101, 95 102, 96 103, 97 104, 98 105, 97 106, 96 107, 95 108, 94 109, 93 110, 94 111, 93 112, 94 113, 93 114, 92 115, 93 116, 92 117, 93 118, 94 119, 95 120, 96 121, 95 122, 96 123, 95 124, 94 125, 95 126, 96 127, 95 128, 96 129, 97 130, 96 131, 95 132, 96 133, 97 134, 96 135, 97 136, 98 137, 99 138, 98 139, 99 140, 98 141, 97 142, 98 143, 99 144, 98 145, 99 146, 100 147, 99 148, 100 149, 99 150, 98 151, 97 152, 96 153, 95 154, 94 155, 95 156, 96 157, 95 158, 94 159, 93 160, 92 161, 91 162, 90 163, 91 164, 92 165, 93 166, 92 167, 91 168, 90 169, 91 170, 92 171, 93 172, 94 173, 93 174, 92 175, 93 176, 94 177, 93 178, 92 179, 93 180, 92 181, 91 182, 90 183, 91 184, 92 185, 91 186, 92 187, 91 188, 90 189, 89 190, 90 191, 91 192, 92 193, 93 194, 92 195, 93 196, 92 197, 93 198, 92 199, 91 200, 92 201, 91 202, 90 203, 89 204, 88 205, 89 206, 90 207, 91 208, 90 209, 91 210, 92 211, 91 212, 92 213, 93 214, 94 215, 93 216, 92 217, 91 218, 90 219, 89 220, 90 221, 91 222, 92 223, 93 224, 94 225, 95 226, 96 227, 95 228, 96 229, 97 230, 98 231, 97 232, 96 233, 95 234, 94 235, 95 236, 94 237, 95 238, 96 239, 95 240, 96 241, 95 242, 94 243, 93 244, 92 245, 93 246, 92 247, 91 248, 92 249, 93 250, 94 251, 95 252, 94 253, 93 254, 94 255, 93 256, 92 257, 93 258, 94 259, 95 260, 94 261, 93 262, 94 263, 93 264, 94 265, 93 266, 94 267, 95 268, 94 269, 93 270, 92 271, 91 272, 90 273, 89 274, 88 275, 89 276, 90 277, 91 278, 92 279, 91 280, 90 281, 91 282, 90 283, 89 284, 88 285, 87 286, 88 287, 89 288, 88 289, 89 290, 90 291, 89 292, 90 293, 89 294, 90 295, 89 296, 88 297, 89 298, 90 299, 89 300, 88 301, 89 302, 88 303, 89 304, 88 305, 89 306, 90 307, 91 308, 90 309, 89 310, 90 311, 89 312, 88 313, 89 314, 88 315, 89 316, 90 317, 91 318, 92 319, 93 320, 92 321, 93 322, 92 323, 93 324, 94 325, 93 326, 94 327, 95 328, 96 329, 97 330, 98 331, 97 332, 98 333, 97 334, 98 335, 97 336, 96 337, 95 338, 96 339, 97 340, 98 341, 97 342, 98 343, 97 344, 98 345, 97 346, 98 347, 97 348, 96 349, 95 350, 94 351, 93 352, 94 353, 93 354, 92 355, 91 356, 92 357, 93 358, 94 359, 93 360, 92 361, 91 362, 90 363, 89 364, 90 365, 91 366, 90 367, 91 368, 90 369, 91 370, 92 371, 91 372, 92 373, 93 374, 92 375, 93 376, 94 377, 93 378, 92 379, 93 380, 92 381, 93 382, 94 383, 93 384, 94 385, 95 386, 96 387, 97 388, 98 389, 99 390, 98 391, 97 392, 96 393, 97 394, 96 395, 97 396, 96 397, 95 398, 94 399, 93 400, 200 " style="fill:rgb(125,10,224);stroke:rgb(25,0,124)"></polygon><polygon points="0, 200 0, 100 1, 99 2, 100 3, 101 4, 102 5, 103 6, 104 7, 103 8, 104 9, 103 10, 102 11, 101 12, 102 13, 101 14, 102 15, 101 16, 102 17, 101 18, 102 19, 103 20, 104 21, 105 22, 106 23, 107 24, 108 25, 109 26, 108 27, 109 28, 110 29, 109 30, 108 31, 107 32, 108 33, 107 34, 108 35, 109 36, 108 37, 109 38, 108 39, 109 40, 110 41, 111 42, 112 43, 113 44, 112 45, 113 46, 114 47, 113 48, 112 49, 111 50, 112 51, 113 52, 112 53, 111 54, 110 55, 109 56, 110 57, 109 58, 108 59, 107 60, 106 61, 105 62, 106 63, 105 64, 104 65, 105 66, 106 67, 105 68, 104 69, 105 70, 106 71, 107 72, 108 73, 107 74, 106 75, 107 76, 106 77, 107 78, 106 79, 105 80, 106 81, 105 82, 104 83, 103 84, 102 85, 103 86, 102 87, 103 88, 102 89, 101 90, 100 91, 101 92, 102 93, 103 94, 102 95, 101 96, 102 97, 103 98, 104 99, 103 100, 104 101, 103 102, 102 103, 101 104, 100 105, 101 106, 102 107, 101 108, 102 109, 101 110, 102 111, 101 112, 100 113, 101 114, 100 115, 101 116, 102 117, 101 118, 102 119, 103 120, 104 121, 103 122, 104 123, 105 124, 104 125, 105 126, 104 127, 105 128, 104 129, 105 130, 106 131, 107 132, 106 133, 107 134, 108 135, 109 136, 108 137, 109 138, 108 139, 109 140, 110 141, 111 142, 110 143, 109 144, 110 145, 111 146, 112 147, 113 148, 114 149, 115 150, 116 151, 115 152, 114 153, 113 154, 114 155, 113 156, 112 157, 111 158, 112 159, 111 160, 112 161, 111 162, 110 163, 109 164, 108 165, 107 166, 108 167, 107 168, 108 169, 107 170, 108 171, 109 172, 110 173, 111 174, 112 175, 113 176, 114 177, 115 178, 114 179, 113 180, 114 181, 115 182, 116 183, 115 184, 116 185, 115 186, 116 187, 117 188, 116 189, 115 190, 114 191, 115 192, 114 193, 113 194, 114 195, 113 196, 114 197, 115 198, 114 199, 115 200, 116 201, 115 202, 116 203, 115 204, 114 205, 113 206, 114 207, 115 208, 116 209, 115 210, 114 211, 115 212, 116 213, 117 214, 116 215, 115 216, 116 217, 117 218, 118 219, 119 220, 118 221, 117 222, 118 223, 117 224, 116 225, 115 226, 114 227, 115 228, 116 229, 117 230, 116 231, 115 232, 116 233, 115 234, 116 235, 115 236, 114 237, 113 238, 112 239, 113 240, 114 241, 113 242, 114 243, 113 244, 114 245, 115 246, 114 247, 115 248, 116 249, 117 250, 118 251, 117 252, 116 253, 117 254, 116 255, 117 256, 118 257, 117 258, 118 259, 119 260, 120 261, 119 262, 118 263, 119 264, 118 265, 119 266, 120 267, 119 268, 118 269, 117 270, 118 271, 117 272, 118 273, 119 274, 118 275, 119 276, 120 277, 121 278, 122 279, 123 280, 122 281, 123 282, 124 283, 123 284, 124 285, 125 286, 124 287, 123 288, 122 289, 121 290, 122 291, 123 292, 122 293, 123 294, 124 295, 123 296, 124 297, 125 298, 124 299, 125 300, 124 301, 125 302, 126 303, 125 304, 124 305, 125 306, 126 307, 125 308, 126 309, 127 310, 126 311, 125 312, 124 313, 123 314, 124 315, 125 316, 126 317, 127 318, 126 319, 127 320, 128 321, 129 322, 128 323, 127 324, 126 325, 127 326, 128 327, 127 328, 126 329, 127 330, 126 331, 127 332, 126 333, 127 334, 126 335, 127 336, 128 337, 129 338, 128 339, 129 340, 130 341, 131 342, 130 343, 131 344, 132 345, 131 346, 132 347, 131 348, 132 349, 131 350, 132 351, 133 352, 132 353, 131 354, 132 355, 131 356, 130 357, 129 358, 130 359, 131 360, 132 361, 133 362, 134 363, 135 364, 134 365, 133 366, 132 367, 131 368, 130 369, 129 370, 128 371, 127 372, 126 373, 127 374, 128 375, 129 376, 130 377, 131 378, 130 379, 129 380, 128 381, 129 382, 128 383, 127 384, 128 385, 129 386, 130 387, 131 388, 130 389, 129 390, 128 391, 127 392, 128 393, 129 394, 128 395, 129 396, 128 397, 129 398, 128 399, 129 400, 200 " style="fill:rgb(105,103,140);stroke:rgb(5,3,40)"></polygon><polygon points="0, 200 0, 100 1, 99 2, 100 3, 99 4, 100 5, 99 6, 98 7, 97 8, 96 9, 97 10, 96 11, 95 12, 94 13, 93 14, 92 15, 91 16, 90 17, 91 18, 90 19, 91 20, 90 21, 91 22, 90 23, 91 24, 90 25, 91 26, 90 27, 89 28, 90 29, 89 30, 90 31, 91 32, 90 33, 89 34, 90 35, 89 36, 88 37, 87 38, 86 39, 85 40, 86 41, 87 42, 86 43, 85 44, 86 45, 85 46, 84 47, 85 48, 86 49, 85 50, 86 51, 85 52, 86 53, 87 54, 88 55, 87 56, 88 57, 87 58, 86 59, 87 60, 88 61, 89 62, 90 63, 91 64, 92 65, 93 66, 92 67, 91 68, 90 69, 91 70, 92 71, 91 72, 90 73, 91 74, 90 75, 91 76, 92 77, 91 78, 90 79, 91 80, 90 81, 89 82, 90 83, 91 84, 92 85, 93 86, 94 87, 95 88, 96 89, 95 90, 94 91, 93 92, 94 93, 95 94, 94 95, 95 96, 96 97, 95 98, 94 99, 95 100, 96 101, 97 102, 98 103, 99 104, 98 105, 97 106, 98 107, 99 108, 98 109, 97 110, 98 111, 99 112, 100 113, 99 114, 100 115, 99 116, 98 117, 97 118, 98 119, 97 120, 96 121, 95 122, 94 123, 95 124, 94 125, 93 126, 92 127, 91 128, 90 129, 89 130, 90 131, 91 132, 90 133, 91 134, 90 135, 91 136, 92 137, 91 138, 92 139, 91 140, 92 141, 91 142, 92 143, 93 144, 92 145, 91 146, 90 147, 91 148, 90 149, 89 150, 88 151, 89 152, 90 153, 91 154, 90 155, 91 156, 90 157, 91 158, 90 159, 89 160, 88 161, 89 162, 88 163, 87 164, 86 165, 87 166, 86 167, 87 168, 88 169, 87 170, 86 171, 87 172, 86 173, 87 174, 86 175, 87 176, 86 177, 85 178, 84 179, 85 180, 84 181, 85 182, 84 183, 85 184, 86 185, 87 186, 88 187, 87 188, 88 189, 87 190, 88 191, 87 192, 86 193, 87 194, 86 195, 87 196, 88 197, 89 198, 88 199, 89 200, 90 201, 89 202, 90 203, 91 204, 92 205, 91 206, 92 207, 93 208, 92 209, 93 210, 92 211, 91 212, 92 213, 91 214, 92 215, 93 216, 92 217, 91 218, 92 219, 93 220, 92 221, 93 222, 94 223, 93 224, 94 225, 95 226, 96 227, 97 228, 96 229, 97 230, 98 231, 99 232, 98 233, 97 234, 98 235, 97 236, 96 237, 97 238, 96 239, 97 240, 96 241, 97 242, 98 243, 99 244, 100 245, 99 246, 98 247, 99 248, 100 249, 101 250, 102 251, 103 252, 102 253, 101 254, 102 255, 101 256, 100 257, 99 258, 100 259, 99 260, 100 261, 101 262, 102 263, 103 264, 102 265, 101 266, 100 267, 101 268, 102 269, 101 270, 100 271, 101 272, 100 273, 101 274, 102 275, 101 276, 100 277, 101 278, 100 279, 101 280, 102 281, 103 282, 102 283, 101 284, 102 285, 103 286, 104 287, 103 288, 104 289, 103 290, 104 291, 103 292, 102 293, 103 294, 104 295, 105 296, 106 297, 105 298, 104 299, 103 300, 102 301, 101 302, 100 303, 101 304, 100 305, 99 306, 98 307, 99 308, 100 309, 99 310, 100 311, 99 312, 100 313, 99 314, 98 315, 97 316, 98 317, 97 318, 98 319, 97 320, 96 321, 97 322, 96 323, 95 324, 96 325, 95 326, 94 327, 95 328, 94 329, 93 330, 92 331, 93 332, 92 333, 91 334, 92 335, 91 336, 90 337, 89 338, 88 339, 87 340, 86 341, 87 342, 88 343, 89 344, 88 345, 87 346, 88 347, 87 348, 88 349, 87 350, 86 351, 85 352, 84 353, 83 354, 82 355, 83 356, 82 357, 83 358, 82 359, 81 360, 80 361, 81 362, 82 363, 81 364, 82 365, 81 366, 80 367, 81 368, 80 369, 81 370, 80 371, 81 372, 82 373, 81 374, 82 375, 83 376, 84 377, 83 378, 82 379, 83 380, 82 381, 83 382, 84 383, 85 384, 86 385, 85 386, 86 387, 87 388, 88 389, 87 390, 88 391, 87 392, 88 393, 89 394, 90 395, 91 396, 90 397, 89 398, 88 399, 87 400, 200 " style="fill:rgb(9,223,218);stroke:rgb(0,123,118)"></polygon><polygon points="0, 200 0, 100 1, 99 2, 98 3, 99 4, 98 5, 99 6, 98 7, 99 8, 98 9, 97 10, 98 11, 99 12, 98 13, 99 14, 98 15, 97 16, 98 17, 99 18, 98 19, 97 20, 98 21, 97 22, 98 23, 97 24, 98 25, 99 26, 98 27, 99 28, 100 29, 101 30, 102 31, 101 32, 102 33, 101 34, 100 35, 99 36, 98 37, 99 38, 100 39, 99 40, 100 41, 101 42, 100 43, 99 44, 98 45, 97 46, 96 47, 97 48, 96 49, 97 50, 98 51, 99 52, 100 53, 101 54, 102 55, 101 56, 100 57, 99 58, 98 59, 99 60, 98 61, 97 62, 98 63, 99 64, 98 65, 99 66, 100 67, 101 68, 102 69, 101 70, 102 71, 101 72, 100 73, 99 74, 98 75, 99 76, 100 77, 101 78, 102 79, 103 80, 102 81, 101 82, 100 83, 101 84, 102 85, 103 86, 104 87, 105 88, 106 89, 107 90, 106 91, 107 92, 108 93, 109 94, 110 95, 109 96, 108 97, 109 98, 108 99, 107 100, 106 101, 107 102, 106 103, 105 104, 104 105, 105 106, 106 107, 107 108, 108 109, 107 110, 108 111, 107 112, 106 113, 107 114, 108 115, 107 116, 106 117, 105 118, 104 119, 105 120, 104 121, 103 122, 104 123, 105 124, 106 125, 105 126, 106 127, 107 128, 106 129, 105 130, 104 131, 103 132, 104 133, 105 134, 106 135, 107 136, 108 137, 107 138, 106 139, 105 140, 104 141, 103 142, 104 143, 103 144, 104 145, 105 146, 104 147, 103 148, 104 149, 105 150, 106 151, 107 152, 108 153, 107 154, 106 155, 107 156, 106 157, 107 158, 108 159, 107 160, 106 161, 105 162, 106 163, 107 164, 106 165, 105 166, 106 167, 105 168, 106 169, 107 170, 106 171, 107 172, 108 173, 107 174, 106 175, 105 176, 106 177, 105 178, 106 179, 105 180, 106 181, 107 182, 108 183, 107 184, 108 185, 107 186, 108 187, 107 188, 106 189, 107 190, 108 191, 109 192, 108 193, 107 194, 106 195, 107 196, 108 197, 107 198, 108 199, 109 200, 110 201, 111 202, 112 203, 113 204, 114 205, 115 206, 114 207, 115 208, 116 209, 115 210, 116 211, 117 212, 118 213, 117 214, 118 215, 117 216, 116 217, 115 218, 114 219, 113 220, 112 221, 111 222, 112 223, 111 224, 112 225, 113 226, 114 227, 115 228, 114 229, 113 230, 114 231, 113 232, 112 233, 111 234, 110 235, 109 236, 108 237, 107 238, 108 239, 109 240, 110 241, 109 242, 108 243, 107 244, 106 245, 105 246, 104 247, 105 248, 106 249, 105 250, 104 251, 103 252, 104 253, 105 254, 104 255, 105 256, 106 257, 107 258, 106 259, 105 260, 106 261, 105 262, 106 263, 105 264, 104 265, 105 266, 106 267, 105 268, 106 269, 105 270, 104 271, 103 272, 104 273, 105 274, 106 275, 107 276, 108 277, 109 278, 110 279, 109 280, 110 281, 111 282, 112 283, 113 284, 114 285, 115 286, 114 287, 115 288, 116 289, 115 290, 114 291, 113 292, 114 293, 115 294, 114 295, 115 296, 116 297, 117 298, 116 299, 117 300, 118 301, 117 302, 116 303, 117 304, 116 305, 117 306, 116 307, 115 308, 114 309, 113 310, 112 311, 111 312, 110 313, 109 314, 108 315, 109 316, 108 317, 107 318, 106 319, 105 320, 104 321, 105 322, 104 323, 105 324, 104 325, 103 326, 102 327, 101 328, 100 329, 99 330, 98 331, 97 332, 96 333, 95 334, 96 335, 97 336, 98 337, 97 338, 96 339, 95 340, 96 341, 95 342, 94 343, 95 344, 94 345, 93 346, 92 347, 91 348, 92 349, 91 350, 90 351, 91 352, 90 353, 91 354, 90 355, 89 356, 88 357, 89 358, 88 359, 87 360, 86 361, 85 362, 84 363, 83 364, 82 365, 83 366, 84 367, 83 368, 82 369, 83 370, 82 371, 83 372, 84 373, 85 374, 86 375, 85 376, 86 377, 85 378, 86 379, 87 380, 88 381, 87 382, 86 383, 85 384, 86 385, 85 386, 84 387, 83 388, 82 389, 81 390, 82 391, 83 392, 84 393, 85 394, 86 395, 87 396, 86 397, 87 398, 88 399, 87 400, 200 " style="fill:rgb(28,129,192);stroke:rgb(0,29,92)"></polygon><polygon points="0, 200 0, 100 1, 99 2, 100 3, 101 4, 100 5, 101 6, 102 7, 103 8, 102 9, 101 10, 100 11, 101 12, 100 13, 101 14, 102 15, 103 16, 104 17, 105 18, 106 19, 107 20, 108 21, 107 22, 108 23, 107 24, 106 25, 105 26, 106 27, 105 28, 104 29, 105 30, 104 31, 105 32, 106 33, 107 34, 108 35, 107 36, 106 37, 105 38, 106 39, 105 40, 106 41, 105 42, 104 43, 103 44, 104 45, 103 46, 102 47, 103 48, 104 49, 103 50, 102 51, 103 52, 104 53, 103 54, 102 55, 103 56, 102 57, 103 58, 102 59, 103 60, 104 61, 103 62, 102 63, 103 64, 104 65, 103 66, 102 67, 101 68, 102 69, 103 70, 102 71, 101 72, 100 73, 99 74, 98 75, 99 76, 98 77, 99 78, 100 79, 101 80, 102 81, 103 82, 104 83, 103 84, 102 85, 103 86, 102 87, 101 88, 100 89, 101 90, 102 91, 103 92, 102 93, 103 94, 104 95, 105 96, 104 97, 105 98, 104 99, 103 100, 102 101, 101 102, 100 103, 99 104, 100 105, 99 106, 100 107, 99 108, 100 109, 99 110, 98 111, 97 112, 98 113, 97 114, 96 115, 95 116, 94 117, 93 118, 92 119, 91 120, 90 121, 89 122, 88 123, 87 124, 86 125, 85 126, 84 127, 83 128, 84 129, 83 130, 84 131, 85 132, 84 133, 83 134, 84 135, 85 136, 86 137, 85 138, 86 139, 85 140, 84 141, 85 142, 84 143, 83 144, 84 145, 83 146, 84 147, 85 148, 86 149, 85 150, 86 151, 85 152, 84 153, 83 154, 84 155, 85 156, 86 157, 85 158, 84 159, 85 160, 84 161, 85 162, 84 163, 85 164, 86 165, 85 166, 84 167, 85 168, 86 169, 87 170, 88 171, 89 172, 90 173, 89 174, 88 175, 89 176, 90 177, 89 178, 88 179, 89 180, 88 181, 89 182, 90 183, 91 184, 92 185, 91 186, 92 187, 93 188, 94 189, 93 190, 94 191, 95 192, 96 193, 97 194, 96 195, 95 196, 96 197, 95 198, 96 199, 95 200, 96 201, 97 202, 98 203, 97 204, 98 205, 97 206, 96 207, 95 208, 96 209, 95 210, 96 211, 97 212, 96 213, 97 214, 98 215, 99 216, 100 217, 101 218, 102 219, 101 220, 102 221, 101 222, 102 223, 101 224, 102 225, 101 226, 102 227, 101 228, 100 229, 101 230, 102 231, 103 232, 104 233, 105 234, 106 235, 107 236, 108 237, 109 238, 108 239, 107 240, 108 241, 107 242, 106 243, 105 244, 106 245, 105 246, 106 247, 105 248, 106 249, 107 250, 108 251, 107 252, 106 253, 105 254, 104 255, 105 256, 104 257, 105 258, 104 259, 103 260, 104 261, 105 262, 106 263, 105 264, 104 265, 103 266, 104 267, 103 268, 104 269, 105 270, 106 271, 107 272, 106 273, 107 274, 106 275, 107 276, 108 277, 109 278, 110 279, 109 280, 108 281, 109 282, 110 283, 109 284, 108 285, 109 286, 110 287, 111 288, 112 289, 111 290, 112 291, 113 292, 114 293, 113 294, 112 295, 113 296, 114 297, 113 298, 114 299, 115 300, 116 301, 117 302, 116 303, 115 304, 114 305, 113 306, 114 307, 113 308, 114 309, 115 310, 114 311, 113 312, 112 313, 113 314, 112 315, 113 316, 112 317, 113 318, 114 319, 113 320, 114 321, 115 322, 114 323, 115 324, 114 325, 115 326, 116 327, 115 328, 116 329, 117 330, 118 331, 117 332, 116 333, 115 334, 116 335, 117 336, 116 337, 117 338, 116 339, 117 340, 116 341, 115 342, 116 343, 117 344, 118 345, 119 346, 120 347, 121 348, 120 349, 121 350, 122 351, 121 352, 120 353, 119 354, 118 355, 117 356, 118 357, 119 358, 120 359, 121 360, 122 361, 121 362, 120 363, 121 364, 120 365, 119 366, 118 367, 117 368, 116 369, 115 370, 114 371, 115 372, 114 373, 115 374, 116 375, 117 376, 116 377, 115 378, 116 379, 115 380, 114 381, 113 382, 114 383, 113 384, 112 385, 113 386, 112 387, 113 388, 114 389, 113 390, 114 391, 113 392, 112 393, 113 394, 112 395, 113 396, 112 397, 111 398, 112 399, 111 400, 200 " style="fill:rgb(222,55,111);stroke:rgb(122,0,11)"></polygon><polygon points="0, 200 0, 100 1, 101 2, 100 3, 101 4, 102 5, 103 6, 104 7, 105 8, 106 9, 105 10, 106 11, 105 12, 104 13, 103 14, 104 15, 105 16, 104 17, 103 18, 104 19, 103 20, 104 21, 103 22, 102 23, 101 24, 102 25, 101 26, 100 27, 99 28, 100 29, 99 30, 100 31, 101 32, 100 33, 99 34, 98 35, 99 36, 98 37, 97 38, 96 39, 97 40, 96 41, 97 42, 96 43, 95 44, 96 45, 95 46, 96 47, 95 48, 94 49, 93 50, 94 51, 93 52, 92 53, 93 54, 92 55, 93 56, 94 57, 93 58, 94 59, 93 60, 92 61, 91 62, 92 63, 93 64, 92 65, 91 66, 92 67, 93 68, 94 69, 95 70, 96 71, 95 72, 94 73, 93 74, 92 75, 91 76, 92 77, 93 78, 92 79, 93 80, 94 81, 95 82, 94 83, 93 84, 92 85, 91 86, 90 87, 89 88, 88 89, 87 90, 86 91, 85 92, 84 93, 83 94, 84 95, 83 96, 84 97, 83 98, 82 99, 83 100, 82 101, 83 102, 82 103, 81 104, 82 105, 81 106, 80 107, 79 108, 78 109, 79 110, 78 111, 77 112, 76 113, 77 114, 78 115, 77 116, 78 117, 79 118, 80 119, 81 120, 82 121, 81 122, 80 123, 81 124, 82 125, 83 126, 82 127, 81 128, 82 129, 81 130, 80 131, 81 132, 82 133, 83 134, 84 135, 83 136, 84 137, 85 138, 84 139, 83 140, 84 141, 85 142, 84 143, 85 144, 84 145, 83 146, 82 147, 83 148, 84 149, 85 150, 84 151, 83 152, 84 153, 83 154, 82 155, 81 156, 82 157, 81 158, 82 159, 81 160, 82 161, 81 162, 82 163, 83 164, 84 165, 83 166, 84 167, 85 168, 84 169, 85 170, 84 171, 85 172, 86 173, 85 174, 86 175, 87 176, 88 177, 89 178, 90 179, 89 180, 90 181, 89 182, 88 183, 89 184, 88 185, 89 186, 88 187, 89 188, 88 189, 89 190, 90 191, 89 192, 88 193, 87 194, 86 195, 85 196, 84 197, 85 198, 86 199, 87 200, 88 201, 89 202, 88 203, 89 204, 88 205, 87 206, 88 207, 89 208, 88 209, 89 210, 90 211, 91 212, 90 213, 91 214, 92 215, 91 216, 90 217, 91 218, 92 219, 91 220, 92 221, 91 222, 92 223, 93 224, 92 225, 91 226, 92 227, 91 228, 92 229, 93 230, 94 231, 93 232, 94 233, 95 234, 94 235, 95 236, 94 237, 93 238, 92 239, 91 240, 90 241, 89 242, 88 243, 87 244, 86 245, 87 246, 88 247, 87 248, 88 249, 87 250, 88 251, 89 252, 90 253, 89 254, 88 255, 87 256, 88 257, 87 258, 86 259, 87 260, 88 261, 89 262, 90 263, 91 264, 90 265, 91 266, 90 267, 89 268, 88 269, 89 270, 90 271, 91 272, 92 273, 91 274, 92 275, 91 276, 92 277, 91 278, 90 279, 91 280, 90 281, 91 282, 90 283, 89 284, 88 285, 89 286, 90 287, 89 288, 88 289, 89 290, 88 291, 87 292, 86 293, 87 294, 86 295, 87 296, 86 297, 87 298, 88 299, 87 300, 88 301, 89 302, 90 303, 91 304, 92 305, 91 306, 92 307, 93 308, 92 309, 91 310, 92 311, 91 312, 90 313, 91 314, 92 315, 93 316, 94 317, 93 318, 92 319, 91 320, 90 321, 91 322, 90 323, 89 324, 88 325, 87 326, 88 327, 87 328, 86 329, 87 330, 88 331, 89 332, 90 333, 89 334, 88 335, 89 336, 88 337, 89 338, 88 339, 87 340, 86 341, 85 342, 86 343, 87 344, 86 345, 85 346, 86 347, 85 348, 84 349, 83 350, 84 351, 85 352, 86 353, 87 354, 88 355, 89 356, 88 357, 87 358, 86 359, 85 360, 86 361, 87 362, 88 363, 89 364, 88 365, 87 366, 88 367, 89 368, 90 369, 91 370, 90 371, 89 372, 90 373, 89 374, 88 375, 87 376, 86 377, 87 378, 86 379, 85 380, 86 381, 87 382, 88 383, 87 384, 88 385, 89 386, 90 387, 89 388, 88 389, 89 390, 90 391, 89 392, 90 393, 89 394, 88 395, 89 396, 90 397, 89 398, 88 399, 87 400, 200 " style="fill:rgb(133,71,212);stroke:rgb(33,0,112)"></polygon><polygon points="0, 200 0, 100 1, 99 2, 100 3, 101 4, 100 5, 99 6, 98 7, 97 8, 96 9, 97 10, 96 11, 97 12, 98 13, 99 14, 98 15, 99 16, 98 17, 97 18, 98 19, 99 20, 100 21, 101 22, 100 23, 99 24, 98 25, 99 26, 100 27, 99 28, 98 29, 99 30, 100 31, 101 32, 102 33, 101 34, 102 35, 101 36, 102 37, 103 38, 102 39, 101 40, 102 41, 103 42, 104 43, 103 44, 102 45, 103 46, 102 47, 101 48, 100 49, 99 50, 100 51, 101 52, 102 53, 101 54, 102 55, 101 56, 100 57, 101 58, 102 59, 103 60, 104 61, 105 62, 106 63, 107 64, 106 65, 105 66, 104 67, 105 68, 106 69, 107 70, 108 71, 109 72, 108 73, 107 74, 108 75, 107 76, 106 77, 107 78, 106 79, 107 80, 106 81, 107 82, 108 83, 107 84, 108 85, 109 86, 110 87, 109 88, 108 89, 109 90, 110 91, 109 92, 110 93, 109 94, 108 95, 107 96, 106 97, 105 98, 104 99, 105 100, 106 101, 107 102, 108 103, 109 104, 108 105, 107 106, 106 107, 107 108, 108 109, 109 110, 110 111, 109 112, 108 113, 109 114, 110 115, 111 116, 112 117, 113 118, 114 119, 115 120, 114 121, 115 122, 116 123, 115 124, 114 125, 113 126, 114 127, 113 128, 112 129, 113 130, 114 131, 113 132, 112 133, 111 134, 110 135, 109 136, 110 137, 111 138, 110 139, 109 140, 108 141, 107 142, 108 143, 109 144, 110 145, 111 146, 110 147, 111 148, 112 149, 111 150, 110 151, 111 152, 110 153, 111 154, 112 155, 113 156, 112 157, 111 158, 110 159, 111 160, 110 161, 111 162, 110 163, 109 164, 108 165, 107 166, 108 167, 109 168, 108 169, 107 170, 106 171, 105 172, 104 173, 103 174, 104 175, 105 176, 106 177, 105 178, 106 179, 105 180, 106 181, 107 182, 106 183, 105 184, 104 185, 105 186, 106 187, 105 188, 106 189, 107 190, 106 191, 105 192, 104 193, 105 194, 104 195, 103 196, 104 197, 105 198, 106 199, 107 200, 108 201, 107 202, 106 203, 107 204, 108 205, 107 206, 108 207, 107 208, 108 209, 107 210, 106 211, 105 212, 104 213, 105 214, 104 215, 105 216, 104 217, 105 218, 106 219, 107 220, 106 221, 107 222, 106 223, 105 224, 106 225, 105 226, 106 227, 107 228, 106 229, 107 230, 106 231, 105 232, 104 233, 105 234, 104 235, 105 236, 106 237, 105 238, 106 239, 105 240, 104 241, 103 242, 104 243, 103 244, 102 245, 101 246, 102 247, 101 248, 100 249, 101 250, 102 251, 101 252, 100 253, 99 254, 100 255, 101 256, 100 257, 99 258, 98 259, 99 260, 98 261, 99 262, 98 263, 97 264, 96 265, 97 266, 96 267, 97 268, 98 269, 97 270, 96 271, 95 272, 94 273, 93 274, 94 275, 95 276, 96 277, 95 278, 96 279, 97 280, 96 281, 95 282, 94 283, 93 284, 94 285, 95 286, 94 287, 95 288, 96 289, 97 290, 96 291, 97 292, 98 293, 97 294, 96 295, 95 296, 94 297, 95 298, 94 299, 95 300, 94 301, 93 302, 94 303, 95 304, 96 305, 95 306, 96 307, 97 308, 96 309, 95 310, 94 311, 93 312, 94 313, 93 314, 92 315, 91 316, 90 317, 91 318, 90 319, 91 320, 90 321, 89 322, 90 323, 89 324, 90 325, 89 326, 90 327, 91 328, 92 329, 91 330, 90 331, 91 332, 90 333, 89 334, 90 335, 91 336, 92 337, 93 338, 94 339, 93 340, 92 341, 93 342, 94 343, 95 344, 94 345, 93 346, 94 347, 93 348, 92 349, 91 350, 90 351, 91 352, 90 353, 91 354, 92 355, 91 356, 92 357, 93 358, 94 359, 95 360, 96 361, 95 362, 96 363, 97 364, 98 365, 97 366, 96 367, 97 368, 98 369, 97 370, 98 371, 99 372, 100 373, 101 374, 100 375, 99 376, 100 377, 99 378, 98 379, 97 380, 98 381, 97 382, 96 383, 95 384, 94 385, 93 386, 92 387, 93 388, 94 389, 93 390, 92 391, 91 392, 90 393, 91 394, 92 395, 93 396, 92 397, 93 398, 92 399, 91 400, 200 " style="fill:rgb(198,212,25);stroke:rgb(98,112,0)"></polygon><polygon points="0, 200 0, 100 1, 99 2, 100 3, 99 4, 98 5, 97 6, 96 7, 95 8, 96 9, 95 10, 94 11, 95 12, 96 13, 97 14, 98 15, 99 16, 100 17, 99 18, 100 19, 101 20, 100 21, 99 22, 100 23, 101 24, 100 25, 101 26, 102 27, 101 28, 102 29, 101 30, 102 31, 101 32, 102 33, 103 34, 102 35, 103 36, 102 37, 101 38, 102 39, 101 40, 100 41, 101 42, 102 43, 103 44, 102 45, 101 46, 102 47, 103 48, 104 49, 105 50, 106 51, 107 52, 106 53, 105 54, 104 55, 103 56, 104 57, 105 58, 104 59, 105 60, 104 61, 105 62, 104 63, 103 64, 102 65, 101 66, 102 67, 101 68, 100 69, 99 70, 100 71, 99 72, 100 73, 101 74, 100 75, 101 76, 100 77, 101 78, 100 79, 99 80, 100 81, 99 82, 98 83, 97 84, 98 85, 99 86, 98 87, 99 88, 100 89, 99 90, 98 91, 99 92, 100 93, 99 94, 100 95, 99 96, 98 97, 99 98, 98 99, 97 100, 96 101, 95 102, 96 103, 97 104, 98 105, 97 106, 98 107, 97 108, 96 109, 97 110, 98 111, 97 112, 98 113, 99 114, 98 115, 97 116, 98 117, 99 118, 100 119, 99 120, 100 121, 99 122, 100 123, 101 124, 102 125, 103 126, 104 127, 105 128, 104 129, 103 130, 102 131, 103 132, 102 133, 103 134, 102 135, 103 136, 102 137, 103 138, 102 139, 103 140, 102 141, 101 142, 100 143, 99 144, 98 145, 97 146, 96 147, 95 148, 96 149, 97 150, 96 151, 97 152, 96 153, 97 154, 96 155, 95 156, 94 157, 95 158, 96 159, 97 160, 96 161, 97 162, 98 163, 99 164, 100 165, 101 166, 100 167, 99 168, 100 169, 101 170, 100 171, 99 172, 100 173, 101 174, 102 175, 103 176, 104 177, 105 178, 106 179, 107 180, 108 181, 107 182, 108 183, 109 184, 108 185, 109 186, 110 187, 109 188, 110 189, 109 190, 110 191, 109 192, 108 193, 107 194, 106 195, 105 196, 104 197, 103 198, 102 199, 103 200, 104 201, 103 202, 104 203, 105 204, 106 205, 107 206, 106 207, 107 208, 106 209, 105 210, 106 211, 107 212, 108 213, 107 214, 106 215, 105 216, 106 217, 107 218, 106 219, 105 220, 106 221, 105 222, 106 223, 107 224, 106 225, 105 226, 106 227, 107 228, 108 229, 109 230, 108 231, 109 232, 108 233, 107 234, 106 235, 107 236, 106 237, 105 238, 106 239, 105 240, 106 241, 107 242, 108 243, 109 244, 110 245, 111 246, 112 247, 113 248, 112 249, 111 250, 110 251, 109 252, 108 253, 107 254, 106 255, 107 256, 106 257, 105 258, 104 259, 105 260, 104 261, 105 262, 104 263, 103 264, 102 265, 101 266, 100 267, 101 268, 102 269, 101 270, 100 271, 99 272, 100 273, 101 274, 102 275, 103 276, 104 277, 103 278, 102 279, 103 280, 102 281, 101 282, 100 283, 99 284, 98 285, 99 286, 98 287, 97 288, 96 289, 95 290, 96 291, 97 292, 96 293, 95 294, 96 295, 97 296, 96 297, 97 298, 98 299, 99 300, 100 301, 99 302, 98 303, 97 304, 96 305, 95 306, 96 307, 97 308, 98 309, 99 310, 100 311, 99 312, 100 313, 99 314, 100 315, 101 316, 102 317, 103 318, 102 319, 101 320, 102 321, 101 322, 100 323, 101 324, 102 325, 103 326, 102 327, 101 328, 100 329, 101 330, 102 331, 103 332, 102 333, 101 334, 102 335, 103 336, 104 337, 103 338, 102 339, 101 340, 100 341, 101 342, 102 343, 101 344, 102 345, 103 346, 104 347, 103 348, 102 349, 101 350, 102 351, 101 352, 102 353, 103 354, 104 355, 105 356, 104 357, 105 358, 106 359, 107 360, 106 361, 107 362, 108 363, 107 364, 106 365, 105 366, 104 367, 105 368, 106 369, 105 370, 106 371, 107 372, 106 373, 107 374, 106 375, 105 376, 106 377, 107 378, 106 379, 105 380, 104 381, 105 382, 106 383, 107 384, 106 385, 107 386, 108 387, 107 388, 106 389, 105 390, 104 391, 105 392, 104 393, 105 394, 104 395, 103 396, 102 397, 101 398, 102 399, 103 400, 200 " style="fill:rgb(79,91,35);stroke:rgb(0,0,0)"></polygon><polygon points="0, 200 0, 100 1, 101 2, 102 3, 101 4, 100 5, 99 6, 98 7, 99 8, 98 9, 99 10, 98 11, 99 12, 100 13, 101 14, 100 15, 99 16, 100 17, 99 18, 100 19, 101 20, 100 21, 101 22, 100 23, 99 24, 100 25, 99 26, 98 27, 97 28, 96 29, 97 30, 98 31, 99 32, 98 33, 99 34, 100 35, 99 36, 98 37, 97 38, 96 39, 97 40, 96 41, 95 42, 96 43, 95 44, 96 45, 95 46, 96 47, 95 48, 96 49, 97 50, 96 51, 97 52, 96 53, 95 54, 96 55, 97 56, 98 57, 97 58, 98 59, 97 60, 96 61, 97 62, 98 63, 99 64, 98 65, 97 66, 96 67, 95 68, 96 69, 95 70, 96 71, 95 72, 94 73, 93 74, 94 75, 95 76, 94 77, 93 78, 94 79, 93 80, 94 81, 93 82, 94 83, 95 84, 96 85, 97 86, 96 87, 97 88, 96 89, 97 90, 96 91, 97 92, 96 93, 97 94, 98 95, 99 96, 100 97, 101 98, 100 99, 99 100, 98 101, 99 102, 100 103, 101 104, 102 105, 101 106, 100 107, 101 108, 102 109, 103 110, 102 111, 101 112, 100 113, 99 114, 100 115, 101 116, 102 117, 101 118, 102 119, 101 120, 102 121, 103 122, 104 123, 105 124, 106 125, 107 126, 108 127, 109 128, 108 129, 109 130, 108 131, 107 132, 106 133, 105 134, 106 135, 107 136, 108 137, 109 138, 108 139, 107 140, 106 141, 105 142, 104 143, 103 144, 102 145, 103 146, 102 147, 103 148, 104 149, 105 150, 104 151, 105 152, 106 153, 107 154, 108 155, 109 156, 108 157, 109 158, 110 159, 111 160, 110 161, 111 162, 112 163, 113 164, 114 165, 115 166, 116 167, 115 168, 116 169, 117 170, 116 171, 115 172, 116 173, 115 174, 116 175, 115 176, 116 177, 115 178, 114 179, 115 180, 116 181, 117 182, 118 183, 119 184, 118 185, 117 186, 116 187, 115 188, 114 189, 115 190, 114 191, 115 192, 116 193, 115 194, 116 195, 117 196, 118 197, 117 198, 118 199, 119 200, 120 201, 121 202, 122 203, 121 204, 122 205, 123 206, 122 207, 121 208, 120 209, 121 210, 120 211, 119 212, 120 213, 121 214, 120 215, 119 216, 120 217, 119 218, 120 219, 119 220, 118 221, 119 222, 120 223, 121 224, 122 225, 123 226, 122 227, 123 228, 124 229, 123 230, 122 231, 121 232, 120 233, 121 234, 122 235, 123 236, 124 237, 125 238, 124 239, 125 240, 124 241, 123 242, 124 243, 123 244, 124 245, 125 246, 126 247, 125 248, 124 249, 125 250, 124 251, 123 252, 124 253, 123 254, 122 255, 123 256, 122 257, 121 258, 120 259, 119 260, 118 261, 119 262, 120 263, 121 264, 122 265, 123 266, 122 267, 123 268, 122 269, 123 270, 122 271, 123 272, 124 273, 125 274, 126 275, 127 276, 128 277, 129 278, 130 279, 129 280, 130 281, 129 282, 130 283, 131 284, 130 285, 129 286, 130 287, 131 288, 132 289, 133 290, 132 291, 131 292, 130 293, 129 294, 130 295, 129 296, 130 297, 129 298, 130 299, 129 300, 130 301, 131 302, 130 303, 131 304, 132 305, 131 306, 130 307, 129 308, 130 309, 129 310, 130 311, 131 312, 132 313, 133 314, 134 315, 135 316, 136 317, 137 318, 136 319, 135 320, 136 321, 137 322, 138 323, 139 324, 140 325, 141 326, 140 327, 141 328, 142 329, 143 330, 144 331, 145 332, 146 333, 147 334, 146 335, 145 336, 146 337, 147 338, 148 339, 147 340, 146 341, 147 342, 148 343, 149 344, 150 345, 151 346, 152 347, 151 348, 150 349, 149 350, 150 351, 151 352, 150 353, 151 354, 150 355, 149 356, 148 357, 147 358, 146 359, 145 360, 144 361, 145 362, 144 363, 143 364, 144 365, 145 366, 146 367, 145 368, 144 369, 145 370, 146 371, 147 372, 146 373, 145 374, 146 375, 145 376, 146 377, 147 378, 146 379, 145 380, 144 381, 143 382, 142 383, 141 384, 142 385, 143 386, 144 387, 143 388, 142 389, 143 390, 144 391, 143 392, 142 393, 143 394, 142 395, 141 396, 142 397, 143 398, 144 399, 145 400, 200 " style="fill:rgb(77,56,19);stroke:rgb(0,0,0)"></polygon></svg>